<svg version="1.1" id="Camada_1" xmlns="http://www.w3.org/2000/svg" x="0" y="0" viewBox="0 0 128 128" xml:space="preserve">
  <path fill="#FDAC5F" d="M0 0h128v128H0z"/>
  <g fill="#FFF">
    <path d="M98 78.5l-8.6 12.3-6.1-5c-.6-.5-1.6-.4-2.2.2-.5.7-.4 1.6.2 2.2l7.3 6c.3.2.6.3 1 .3h.2c.4-.1.8-.3 1-.6l9.5-13.7c.5-.7.3-1.7-.4-2.1-.5-.5-1.4-.3-1.9.4zm0 0"/>
    <path d="M106.9 74.9V24.1c0-.8-.7-1.5-1.5-1.5H19.5c-.8 0-1.5.7-1.5 1.5v67.5c0 .8.7 1.5 1.5 1.5h52.1c3 7.2 10.1 12.3 18.4 12.3 11 0 19.9-8.9 19.9-19.9.1-3.9-1-7.5-3-10.6zM70.7 90.1H21.1V25.7h82.8v45.4c-.3-.2-.5-.5-.8-.7-.1-.1-.3-.2-.4-.4-.4-.3-.7-.6-1.1-.8-.1-.1-.3-.2-.4-.3-.4-.2-.8-.5-1.2-.7-.2-.1-.3-.2-.5-.3-.1-.1-.2-.1-.4-.2.3-.6.2-1.3-.3-1.8L80.4 49.1c-.3-.3-.7-.4-1.1-.4-.4 0-.8.2-1.1.5l-15 16.4-7.3-7.3c-.6-.6-1.5-.6-2.1-.1l-26.1 23c-.6.6-.7 1.5-.1 2.2.3.3.7.5 1.2.5.4 0 .7-.1 1-.4l25-22 15.8 15.8c.3.3.7.5 1.1.4-1 2.4-1.6 5-1.6 7.7 0 .8.1 1.5.1 2.2 0 .1 0 .2.1.3.1.8.2 1.4.4 2.2 0-.1 0-.1 0 0zm22.1-24.4c-.2 0-.5-.1-.7-.1-.7-.1-1.3-.1-2-.1-7.3 0-13.7 4-17.2 9.9-.1-.1-.1-.2-.2-.2l-7.4-7.4 14.1-15.4L94.3 66c-.1 0-.2-.1-.3-.1-.4-.1-.8-.1-1.2-.2zm-2.7 36.6c-7.3 0-13.6-4.7-15.9-11.3-.1-.4-.3-.8-.4-1.2 0-.1 0-.2-.1-.3-.1-.4-.2-.7-.2-1.1 0-.2-.1-.4-.1-.6 0-.3-.1-.5-.1-.8 0-.5-.1-1-.1-1.5 0-9.3 7.6-16.9 16.9-16.9.6 0 1.3 0 1.9.1.2 0 .4.1.6.1.5.1.9.1 1.3.2.2.1.4.1.6.2.4.1.8.2 1.2.4.2.1.4.1.6.2.4.2.9.4 1.3.6.1.1.3.1.4.2l1.5.9c.2.1.4.3.6.4.3.2.6.5.9.7.2.2.4.3.6.5l.9.9c.1.2.3.3.4.5.4.5.8 1 1.1 1.5 1.8 2.7 2.8 5.9 2.8 9.4.1 9.4-7.4 16.9-16.7 16.9zm0 0"/>
    <path d="M42.5 56.5c4.7 0 8.5-3.8 8.5-8.5s-3.8-8.5-8.5-8.5S34 43.3 34 48s3.8 8.5 8.5 8.5zm0-14c3 0 5.5 2.5 5.5 5.5s-2.5 5.5-5.5 5.5-5.4-2.5-5.4-5.5 2.4-5.5 5.4-5.5zm0 0"/>
  </g>
</svg>
